<svg xmlns="http://www.w3.org/2000/svg" viewBox="0 0 480 360" role="img" aria-label="原創示範插圖">
<defs><linearGradient id="metal" x1="0" y1="0" x2="1" y2=".5"><stop stop-color="#546b70"/><stop offset=".48" stop-color="#ccd0ba"/><stop offset=".52" stop-color="#a9b4a8"/><stop offset="1" stop-color="#4f6568"/></linearGradient><linearGradient id="gold"><stop stop-color="#6f624b"/><stop offset=".5" stop-color="#c6ac77"/><stop offset="1" stop-color="#807052"/></linearGradient><radialGradient id="bg"><stop stop-color="#344546"/><stop offset="1" stop-color="#192528"/></radialGradient><radialGradient id="glow"><stop stop-color="#dfac52" stop-opacity=".7"/><stop offset="1" stop-color="#9b7939" stop-opacity=".1"/></radialGradient><pattern id="hatch" width="7" height="7" patternUnits="userSpaceOnUse"><path d="m0 7 7-7" stroke="#10191b" stroke-width=".7" opacity=".4"/></pattern><filter id="shadow"><feDropShadow dx="0" dy="12" stdDeviation="10" flood-color="#050d0e" flood-opacity=".55"/></filter></defs>
<path fill="url(#bg)" d="M0 0h480v360H0z"/>
<g fill="none" stroke="#a89b76" opacity=".13"><circle cx="240" cy="180" r="139"/><circle cx="240" cy="180" r="129" stroke-dasharray="2 9"/><path d="M240 20v30m0 260v30M80 180h30m260 0h30m-258-98 21 21m214 174-21-21m-214 21 21-21m214-174-21 21"/></g>
<path d="M16 45V16h29m390 0h29v29M16 315v29h29m390 0h29v-29" fill="none" stroke="#a89b76" opacity=".35"/>
<g filter="url(#shadow)"><g stroke="#b3b8ae" stroke-width="2"><path d="m127 188 93-44 101 40-77 52Z" fill="url(#metal)"/><path d="m127 188 117 48v26l-117-49Z" fill="#687675"/><path d="m244 236 77-52v26l-77 52Z" fill="#97a3a0"/><path d="m171 132 87-37 95 39-87 49Z" fill="url(#metal)"/><path d="m171 132 95 51v31l-95-49Z" fill="#778582"/><path d="m266 183 87-49v29l-87 51Z" fill="#b1b9ad"/></g><path d="m240 128 22-10 27 13-24 13Z" fill="none" stroke="#627675"/><path d="m266 120-2 20m-80 55 45 18m-1-44 21 8" stroke="#dce0d1"/></g><path d="m235 330 5-5 5 5-5 5Z" fill="#b59f76" opacity=".6"/>
</svg>