<svg xmlns="http://www.w3.org/2000/svg" viewBox="0 0 480 360" role="img" aria-label="原創示範插圖">
<defs><linearGradient id="metal" x1="0" y1="0" x2="1" y2=".5"><stop stop-color="#546b70"/><stop offset=".48" stop-color="#ccd0ba"/><stop offset=".52" stop-color="#a9b4a8"/><stop offset="1" stop-color="#4f6568"/></linearGradient><linearGradient id="gold"><stop stop-color="#6f624b"/><stop offset=".5" stop-color="#c6ac77"/><stop offset="1" stop-color="#807052"/></linearGradient><radialGradient id="bg"><stop stop-color="#344546"/><stop offset="1" stop-color="#192528"/></radialGradient><radialGradient id="glow"><stop stop-color="#dfac52" stop-opacity=".7"/><stop offset="1" stop-color="#9b7939" stop-opacity=".1"/></radialGradient><pattern id="hatch" width="7" height="7" patternUnits="userSpaceOnUse"><path d="m0 7 7-7" stroke="#10191b" stroke-width=".7" opacity=".4"/></pattern><filter id="shadow"><feDropShadow dx="0" dy="12" stdDeviation="10" flood-color="#050d0e" flood-opacity=".55"/></filter></defs>
<path fill="url(#bg)" d="M0 0h480v360H0z"/>
<g fill="none" stroke="#a89b76" opacity=".13"><circle cx="240" cy="180" r="139"/><circle cx="240" cy="180" r="129" stroke-dasharray="2 9"/><path d="M240 20v30m0 260v30M80 180h30m260 0h30m-258-98 21 21m214 174-21-21m-214 21 21-21m214-174-21 21"/></g>
<path d="M16 45V16h29m390 0h29v29M16 315v29h29m390 0h29v-29" fill="none" stroke="#a89b76" opacity=".35"/>
<g filter="url(#shadow)"><ellipse cx="240" cy="235" rx="109" ry="39" fill="#435354" stroke="#b0a68b" stroke-width="5"/><path d="M137 226q0-134 103-134t103 134l-17-26-10 12-5-29-14 8-10-29-14 13-14-27-18 18-18-18-14 27-14-13-10 29-14-8-5 29-10-12Z" fill="url(#metal)"/><ellipse cx="240" cy="231" rx="41" ry="18" fill="#899583" stroke="#c8b18a" stroke-width="4"/><path d="M240 252v35m-17 0h34" stroke="#a39c82" stroke-width="8"/></g><path d="m235 330 5-5 5 5-5 5Z" fill="#b59f76" opacity=".6"/>
</svg>